<?xml version="1.0" encoding="UTF-8"?>
<svg version="1.1" xmlns="http://www.w3.org/2000/svg" width="422" height="386">
<path d="M0 0 C139.26 0 278.52 0 422 0 C422 127.38 422 254.76 422 386 C282.74 386 143.48 386 0 386 C0 258.62 0 131.24 0 0 Z " fill="#000000" transform="translate(0,0)"/>
<path d="M0 0 C4.77609833 1.53195607 4.77609833 1.53195607 6.3125 4.0625 C6.68359375 6.390625 6.68359375 6.390625 6.3125 9.0625 C4.1953125 11.34375 4.1953125 11.34375 1.4375 13.5625 C-2.20920221 16.51310806 -4.2991494 18.53041298 -5.6875 23.0625 C-4.511875 23.1553125 -4.511875 23.1553125 -3.3125 23.25 C5.60280765 25.24825861 13.31227741 30.19982242 19.3125 37.0625 C20.6023812 39.29957754 21.56866513 41.47442754 22.47265625 43.890625 C23.31243795 46.06233954 24.34128427 47.89739113 25.5625 49.875 C27.3125 53.0625 27.3125 53.0625 27.3125 57.0625 C27.9725 57.0625 28.6325 57.0625 29.3125 57.0625 C29.58513672 57.87654297 29.58513672 57.87654297 29.86328125 58.70703125 C30.24033203 59.78017578 30.24033203 59.78017578 30.625 60.875 C30.86863281 61.58269531 31.11226562 62.29039063 31.36328125 63.01953125 C32.16929647 65.07516697 32.16929647 65.07516697 33.61401367 66.31811523 C37.36213753 70.16752518 40.0929994 74.9745459 43.06445312 79.43994141 C44.30189153 81.29658314 45.54899849 83.14645689 46.796875 84.99609375 C47.5943512 86.18970271 48.39124493 87.38370108 49.1875 88.578125 C49.90679687 89.65352539 50.62609375 90.72892578 51.3671875 91.83691406 C54.26692167 96.64505762 56.2736379 101.65649827 58 107 C58.37705078 108.15822266 58.37705078 108.15822266 58.76171875 109.33984375 C59.03435547 110.19255859 59.03435547 110.19255859 59.3125 111.0625 C60.3025 111.0625 61.2925 111.0625 62.3125 111.0625 C62.3125 110.0725 62.3125 109.0825 62.3125 108.0625 C71.32715359 107.91141642 80.34181909 108.10262529 89.3125 109.0625 C89.6425 109.3925 89.9725 109.7225 90.3125 110.0625 C91.99433948 110.29537008 93.6837416 110.47514166 95.375 110.625 C96.75365234 110.75068359 96.75365234 110.75068359 98.16015625 110.87890625 C98.87042969 110.93949219 99.58070313 111.00007813 100.3125 111.0625 C103.12115664 119.48846992 102.49474378 129.14910564 102.5 137.9375 C102.51224609 139.03835937 102.52449219 140.13921875 102.53710938 141.2734375 C102.53904297 142.335625 102.54097656 143.3978125 102.54296875 144.4921875 C102.54707764 145.44335449 102.55118652 146.39452148 102.55541992 147.37451172 C102.2940871 150.2662448 101.51629139 152.43425693 100.3125 155.0625 C100.9725 155.0625 101.6325 155.0625 102.3125 155.0625 C102.9371475 164.69248222 101.84859196 173.85864635 96.9921875 182.37890625 C94.79847851 184.57771689 93.30341249 184.67172443 90.25 185 C87.61505761 185.37347573 87.61505761 185.37347573 85.3125 186.0625 C83.61051073 188.43720438 83.61051073 188.43720438 83.3125 191.0625 C82.9825 191.7225 82.6525 192.3825 82.3125 193.0625 C81.71300537 193.04566162 81.11351074 193.02882324 80.49584961 193.01147461 C69.05066246 192.3219584 69.05066246 192.3219584 58.640625 195.88671875 C56.9906411 198.20062474 55.66592876 200.56635593 54.3125 203.0625 C45.84064492 212.33215309 34.8881362 217.15539708 23.1875 220.9375 C22.26952637 221.23591797 21.35155273 221.53433594 20.40576172 221.84179688 C14.37017238 223.69690547 8.61148735 224.70455878 2.3125 225.0625 C1.59304199 225.10697266 0.87358398 225.15144531 0.13232422 225.19726562 C-19.00880224 226.14030974 -39.25616583 222.6074596 -54.08203125 209.70703125 C-61.30791618 202.37281221 -66.18861296 193.94149201 -69.8125 184.328125 C-70.48618952 182.1288532 -70.48618952 182.1288532 -71.6875 181.0625 C-71.94444487 177.111163 -71.87275075 173.14617374 -71.875 169.1875 C-71.88724609 168.09179688 -71.89949219 166.99609375 -71.91210938 165.8671875 C-71.9248205 158.71506371 -71.23478515 152.04588444 -69.6875 145.0625 C-70.30246338 144.76827148 -70.91742676 144.47404297 -71.55102539 144.17089844 C-78.08098956 140.78316705 -83.12349244 134.70039169 -87.6875 129.0625 C-88.6775 128.4025 -89.6675 127.7425 -90.6875 127.0625 C-90.6875 126.4025 -90.6875 125.7425 -90.6875 125.0625 C-98.2775 125.0625 -105.8675 125.0625 -113.6875 125.0625 C-113.96464844 122.98066406 -114.24179688 120.89882812 -114.52734375 118.75390625 C-114.79844254 116.74499473 -115.06957065 114.73608704 -115.34155273 112.72729492 C-115.53024864 111.32775963 -115.71742769 109.92801897 -115.90307617 108.52807617 C-116.16970272 106.51948954 -116.44218276 104.51168262 -116.71484375 102.50390625 C-116.95835571 100.68934937 -116.95835571 100.68934937 -117.20678711 98.83813477 C-117.39574127 96.16223637 -117.39574127 96.16223637 -118.6875 95.0625 C-121.89329511 82.20726161 -121.89329511 82.20726161 -119.29296875 77.58203125 C-117.51230052 75.88114856 -115.69546066 74.47961247 -113.6875 73.0625 C-113.1925 72.0725 -113.1925 72.0725 -112.6875 71.0625 C-112.0275 71.0625 -111.3675 71.0625 -110.6875 71.0625 C-110.72875 70.010625 -110.77 68.95875 -110.8125 67.875 C-110.66932279 63.50809514 -109.83475994 60.91086324 -107.5625 57.25 C-104.43844171 55.27142975 -101.31985593 55.88385954 -97.6875 56.0625 C-97.56375 55.44375 -97.44 54.825 -97.3125 54.1875 C-96.6875 52.0625 -96.6875 52.0625 -94.6875 50.0625 C-91.6484375 49.8671875 -91.6484375 49.8671875 -88.0625 49.9375 C-86.87398437 49.95554688 -85.68546875 49.97359375 -84.4609375 49.9921875 C-83.08808594 50.02699219 -83.08808594 50.02699219 -81.6875 50.0625 C-81.3575 49.0725 -81.0275 48.0825 -80.6875 47.0625 C-68.38901733 45.9867462 -56.90826204 46.31461323 -44.6875 48.0625 C-44.57535156 47.45664063 -44.46320313 46.85078125 -44.34765625 46.2265625 C-42.48525148 38.31438537 -38.39007275 33.68932701 -32.6875 28.0625 C-32.0275 27.4025 -31.3675 26.7425 -30.6875 26.0625 C-28.72027232 25.57069308 -26.75260742 25.08045161 -24.78125 24.60546875 C-20.9912927 23.62262534 -17.79473025 22.72146871 -15.53515625 19.3359375 C-13.88628482 16.11286052 -12.59658721 12.82282082 -11.3125 9.4375 C-8.71035495 4.0330449 -6.31701523 0.10706805 0 0 Z " fill="#074111" transform="translate(213.6875,29.9375)"/>
<path d="M0 0 C0.74507812 0.00902344 1.49015625 0.01804688 2.2578125 0.02734375 C4.08868059 0.05081642 5.91938238 0.08668475 7.75 0.125 C7.75 0.785 7.75 1.445 7.75 2.125 C8.74 2.269375 9.73 2.41375 10.75 2.5625 C17.29035935 4.43306931 21.72620673 10.950425 25 16.625 C27.12786701 21.30816582 28.07162443 26.36634678 29.18725586 31.36352539 C32.62348008 46.68535364 38.06323291 61.45691666 44.36328125 75.82421875 C45.89191292 79.46279272 46.96019333 83.09316104 48.00390625 86.890625 C48.72254822 89.36831809 48.72254822 89.36831809 50.75 92.125 C51.95125089 99.82023127 52.93694585 107.25840881 48.75 114.125 C48.09 114.125 47.43 114.125 46.75 114.125 C46.481875 114.846875 46.21375 115.56875 45.9375 116.3125 C44.75 119.125 44.75 119.125 43.1875 121.4375 C39.41428447 128.49177252 40.63202281 137.85819385 40.6875 145.625 C40.69201172 146.82898438 40.69652344 148.03296875 40.70117188 149.2734375 C40.7128805 152.22401073 40.72928005 155.17447859 40.75 158.125 C44.05 158.785 47.35 159.445 50.75 160.125 C50.75 163.125 50.75 163.125 48.8125 165.4375 C36.73998123 176.66931412 21.27104926 182.54672804 4.9375 182.4375 C4.0623877 182.43258545 3.18727539 182.4276709 2.28564453 182.42260742 C-10.81475972 182.18646591 -23.75516307 178.61983693 -33.25 169.125 C-39.38822009 161.32743689 -44.05510656 153.71960633 -45.85546875 143.91015625 C-46.08540496 142.11031079 -46.08540496 142.11031079 -47.25 141.125 C-47.53204376 137.23664222 -47.48188328 133.33485854 -47.5 129.4375 C-47.520625 128.34759766 -47.54125 127.25769531 -47.5625 126.13476562 C-47.59092817 120.29633014 -47.42515595 116.20845675 -44.25 111.125 C-43.60727909 109.09039555 -43.60727909 109.09039555 -43.25 107.1875 C-42.35377018 103.24560784 -40.93295747 99.7969072 -39.25 96.125 C-38.59 96.125 -37.93 96.125 -37.25 96.125 C-37.14042969 95.53332031 -37.03085938 94.94164062 -36.91796875 94.33203125 C-36.68013672 93.14673828 -36.68013672 93.14673828 -36.4375 91.9375 C-36.28667969 91.16019531 -36.13585937 90.38289063 -35.98046875 89.58203125 C-35.25 87.125 -35.25 87.125 -33.83203125 85.0234375 C-31.40572365 80.57820235 -30.69972661 75.88169853 -29.75 70.9375 C-29.42745239 69.2963623 -29.42745239 69.2963623 -29.09838867 67.62207031 C-26.98054446 56.42991276 -25.73966349 45.17073871 -24.54541016 33.85009766 C-22.08136397 11.11978067 -22.08136397 11.11978067 -14.06640625 3.53515625 C-9.49675961 -0.01246189 -5.6859823 -0.13059677 0 0 Z " fill="#BAD33B" transform="translate(201.25,61.875)"/>
<path d="M0 0 C6.25107435 0.42954941 12.04204521 1.01401507 18 3 C18.2511643 8.10700735 18.00724273 10.73742477 14.765625 14.80078125 C11.91634559 17.64612519 9.02037151 20.33756866 6 23 C5.20722656 23.70898438 4.41445312 24.41796875 3.59765625 25.1484375 C2.29453764 26.29867627 0.98227741 27.43874796 -0.34375 28.5625 C-2.02937377 29.91741648 -2.02937377 29.91741648 -3.14770508 31.5715332 C-5.96811627 33.74659922 -8.88188469 33.37013238 -12.29296875 33.29296875 C-13.35201164 33.28660149 -13.35201164 33.28660149 -14.43244934 33.28010559 C-16.68452303 33.26333034 -18.93569742 33.22568243 -21.1875 33.1875 C-22.71548185 33.17245157 -24.24347776 33.15876344 -25.77148438 33.14648438 C-29.51466872 33.11343089 -33.25718196 33.06165832 -37 33 C-37 33.66 -37 34.32 -37 35 C-36.00742188 35.04898438 -35.01484375 35.09796875 -33.9921875 35.1484375 C-24.89315549 35.63604652 -16.00413837 36.55089648 -7 38 C-7 38.66 -7 39.32 -7 40 C-6.34 40 -5.68 40 -5 40 C-5 39.01 -5 38.02 -5 37 C-3.70703125 35.6328125 -3.70703125 35.6328125 -1.8125 34.125 C2.99114304 30.12484401 7.32597947 25.73027984 11.6940918 21.26806641 C13.11243649 19.82847074 14.55410572 18.41192319 16 17 C16.33 17 16.66 17 17 17 C17.31838702 20.20092666 17.1952605 21.68668659 15.46875 24.45703125 C14.8190625 25.23433594 14.169375 26.01164062 13.5 26.8125 C12.8503125 27.60269531 12.200625 28.39289063 11.53125 29.20703125 C10.77328125 30.09455078 10.77328125 30.09455078 10 31 C10.33 31.33 10.66 31.66 11 32 C12.32 32 13.64 32 15 32 C15 40.26879674 10.76116459 45.49271354 6 52 C6.33 52.33 6.66 52.66 7 53 C7.99 53 8.98 53 10 53 C10.33 52.01 10.66 51.02 11 50 C11.66 50 12.32 50 13 50 C11.51095825 53.89608498 9.75621287 57.59097018 7.875 61.3125 C7.33617187 62.38113281 6.79734375 63.44976562 6.2421875 64.55078125 C5.83226562 65.35902344 5.42234375 66.16726562 5 67 C4.38125 66.79375 3.7625 66.5875 3.125 66.375 C2.073125 66.189375 2.073125 66.189375 1 66 C0.34 66.66 -0.32 67.32 -1 68 C-3.74485593 68.14507695 -6.38480543 68.18652423 -9.125 68.125 C-9.87910156 68.11597656 -10.63320312 68.10695313 -11.41015625 68.09765625 C-13.27357254 68.0740687 -15.13682593 68.03819719 -17 68 C-10.07 68.495 -10.07 68.495 -3 69 C-2.67 70.32 -2.34 71.64 -2 73 C-17.51 73.33 -33.02 73.66 -49 74 C-50.27085063 66.37489622 -51.44581726 58.85245156 -52.29882812 51.18945312 C-52.43669761 47.80300004 -52.43669761 47.80300004 -54 45 C-57.20579511 32.14476161 -57.20579511 32.14476161 -54.60546875 27.51953125 C-52.82480052 25.81864856 -51.00796066 24.41711247 -49 23 C-48.67 22.34 -48.34 21.68 -48 21 C-47.34 21 -46.68 21 -46 21 C-46.061875 19.4221875 -46.061875 19.4221875 -46.125 17.8125 C-45.98182279 13.44559514 -45.14725994 10.84836324 -42.875 7.1875 C-39.75094171 5.20892975 -36.63235593 5.82135954 -33 6 C-33 5.34 -33 4.68 -33 4 C-31.5 2.3125 -31.5 2.3125 -29 1 C-23.3122913 1.18648225 -19.09994134 2.55627811 -14 5 C-13.67 3.68 -13.34 2.36 -13 1 C-5.65822785 0.51054852 -5.65822785 0.51054852 -2.5625 2.8125 C-1 5 -1 5 0 8 C0 5.36 0 2.72 0 0 Z " fill="#0D4514" transform="translate(149,80)"/>
<path d="M0 0 C0.79438477 0.00241699 1.58876953 0.00483398 2.40722656 0.00732422 C11.22893156 0.28176929 17.4362289 3.70870674 23.875 9.625 C26.11843521 12.32862705 27.24401653 14.26800931 28.3125 17.5625 C28.9725 18.5525 29.6325 19.5425 30.3125 20.5625 C30.59330954 23.3646836 30.74065607 26.0075681 30.75 28.8125 C30.75580078 30.00238525 30.75580078 30.00238525 30.76171875 31.21630859 C30.60679249 39.30636402 28.38694952 46.11794008 25.3125 53.5625 C24.6525 53.5625 23.9925 53.5625 23.3125 53.5625 C22.9825 54.5525 22.6525 55.5425 22.3125 56.5625 C13.57487531 60.47936624 5.08101318 60.74402652 -4.375 60.75 C-5.9228418 60.76836914 -5.9228418 60.76836914 -7.50195312 60.78710938 C-8.49517578 60.78904297 -9.48839844 60.79097656 -10.51171875 60.79296875 C-11.85882935 60.79913208 -11.85882935 60.79913208 -13.2331543 60.80541992 C-15.86523421 60.54490868 -17.45910338 59.9651754 -19.6875 58.5625 C-21.81379622 55.45959099 -23.20757311 52.01255038 -24.6875 48.5625 C-25.08582031 47.66144531 -25.48414063 46.76039063 -25.89453125 45.83203125 C-29.35265295 36.97288554 -31.0576712 25.85123892 -27.6171875 16.72265625 C-21.31300237 6.64629476 -11.94781747 -0.03776175 0 0 Z " fill="#4B2503" transform="translate(205.6875,157.4375)"/>
<path d="M0 0 C2.20945207 -0.04423063 4.41916456 -0.07555377 6.62890625 -0.1015625 C7.85939697 -0.12041504 9.0898877 -0.13926758 10.35766602 -0.15869141 C18.2754378 0.18627486 24.74172372 3.20479259 30.7578125 8.2421875 C33.6450932 12.32796207 33.13627712 17.80966897 33.125 22.625 C33.12886719 24.28402344 33.12886719 24.28402344 33.1328125 25.9765625 C33.0214448 28.5118155 32.74088772 30.58917487 32 33 C31.34 33 30.68 33 30 33 C29.731875 33.5775 29.46375 34.155 29.1875 34.75 C26.17955304 40.44926792 26.17955304 40.44926792 22.7578125 42.046875 C15.48229384 43.98989185 8.52497699 44.59831621 1 44 C0 43 0 43 -0.12025452 41.24729919 C-0.11803391 40.48562943 -0.11581329 39.72395966 -0.11352539 38.93920898 C-0.11344986 38.07839218 -0.11337433 37.21757538 -0.11329651 36.33067322 C-0.10813522 35.39526199 -0.10297394 34.45985077 -0.09765625 33.49609375 C-0.0962413 32.54307877 -0.09482635 31.59006378 -0.09336853 30.60816956 C-0.08775152 27.55124835 -0.07519616 24.49439923 -0.0625 21.4375 C-0.05748719 19.37044376 -0.05292391 17.30338638 -0.04882812 15.23632812 C-0.03777656 10.15752412 -0.02050055 5.0787743 0 0 Z " fill="#B3CA39" transform="translate(162,264)"/>
<path d="M0 0 C2.38292245 -0.03226285 4.76540062 -0.05571648 7.1484375 -0.07421875 C8.15088501 -0.08914368 8.15088501 -0.08914368 9.17358398 -0.10437012 C16.45433641 -0.14667418 22.39561417 0.77542044 28 5.5625 C28.99 6.7690625 28.99 6.7690625 30 8 C30.66 8.66 31.32 9.32 32 10 C33.68809267 17.49295325 34.60330812 26.48505527 31.375 33.5625 C25.036349 40.0679576 19.83669796 43.63479137 10.56640625 44.21484375 C7.35801276 44.24647085 4.19917916 44.24755553 1 44 C0 43 0 43 -0.12025452 41.24729919 C-0.11803391 40.48562943 -0.11581329 39.72395966 -0.11352539 38.93920898 C-0.11344986 38.07839218 -0.11337433 37.21757538 -0.11329651 36.33067322 C-0.10813522 35.39526199 -0.10297394 34.45985077 -0.09765625 33.49609375 C-0.0962413 32.54307877 -0.09482635 31.59006378 -0.09336853 30.60816956 C-0.08775152 27.55124835 -0.07519616 24.49439923 -0.0625 21.4375 C-0.05748719 19.37044376 -0.05292391 17.30338638 -0.04882812 15.23632812 C-0.03777656 10.15752412 -0.02050055 5.0787743 0 0 Z " fill="#B3CA39" transform="translate(211,264)"/>
<path d="M0 0 C2.97 0 5.94 0 9 0 C10 1 10 1 10.09765625 4.59765625 C10.0909822 6.08596867 10.07902183 7.57426432 10.0625 9.0625 C10.05798828 9.82111328 10.05347656 10.57972656 10.04882812 11.36132812 C10.0370068 13.24091871 10.01907078 15.12046899 10 17 C14.62 17 19.24 17 24 17 C24 11.39 24 5.78 24 0 C30.93359375 -0.09765625 30.93359375 -0.09765625 33 0 C34 1 34 1 34.12025452 2.79066467 C34.11803391 3.57009933 34.11581329 4.349534 34.11352539 5.15258789 C34.11344986 6.03342545 34.11337433 6.914263 34.11329651 7.8217926 C34.10813522 8.77907761 34.10297394 9.73636261 34.09765625 10.72265625 C34.0962413 11.69786728 34.09482635 12.67307831 34.09336853 13.67784119 C34.08775133 16.80609143 34.07519593 19.93427123 34.0625 23.0625 C34.05748722 25.17773334 34.05292393 27.29296781 34.04882812 29.40820312 C34.03777631 34.60549607 34.02050016 39.80273608 34 45 C30.37 45 26.74 45 23 45 C23 38.73 23 32.46 23 26 C18.71 26 14.42 26 10 26 C10 32.27 10 38.54 10 45 C6.7 45 3.4 45 0 45 C0 30.15 0 15.3 0 0 Z " fill="#A5BA34" transform="translate(260,263)"/>
<path d="M0 0 C0.31838702 3.20092666 0.1952605 4.68668659 -1.53125 7.45703125 C-2.50578125 8.62298828 -2.50578125 8.62298828 -3.5 9.8125 C-4.1496875 10.60269531 -4.799375 11.39289063 -5.46875 12.20703125 C-5.9740625 12.79871094 -6.479375 13.39039062 -7 14 C-6.505 14.495 -6.505 14.495 -6 15 C-4.68 15 -3.36 15 -2 15 C-2 23.26879674 -6.23883541 28.49271354 -11 35 C-10.67 35.33 -10.34 35.66 -10 36 C-9.01 36 -8.02 36 -7 36 C-6.67 35.01 -6.34 34.02 -6 33 C-5.34 33 -4.68 33 -4 33 C-5.48904175 36.89608498 -7.24378713 40.59097018 -9.125 44.3125 C-9.66382813 45.38113281 -10.20265625 46.44976562 -10.7578125 47.55078125 C-11.16773438 48.35902344 -11.57765625 49.16726562 -12 50 C-12.928125 49.7215625 -12.928125 49.7215625 -13.875 49.4375 C-16.04160178 48.76313824 -16.04160178 48.76313824 -18 50 C-18 48.35 -18 46.7 -18 45 C-18.60328125 45.02320313 -19.2065625 45.04640625 -19.828125 45.0703125 C-20.62734375 45.08835938 -21.4265625 45.10640625 -22.25 45.125 C-23.03890625 45.14820313 -23.8278125 45.17140625 -24.640625 45.1953125 C-27.20731941 44.9828378 -28.7916067 44.28654105 -31 43 C-28.11788698 42.03929566 -26.30149956 41.89418117 -23.3125 41.9375 C-22.10013672 41.95103516 -22.10013672 41.95103516 -20.86328125 41.96484375 C-20.24839844 41.97644531 -19.63351563 41.98804688 -19 42 C-19.495 38.04 -19.495 38.04 -20 34 C-21.95679688 34.01740234 -21.95679688 34.01740234 -23.953125 34.03515625 C-33.36225721 34.09277053 -42.6394479 34.06542869 -52 33 C-52 32.67 -52 32.34 -52 32 C-42.43 32 -32.86 32 -23 32 C-23.495 31.01 -23.495 31.01 -24 30 C-37.86 30 -51.72 30 -66 30 C-66 28.68 -66 27.36 -66 26 C-58.74 25.67 -51.48 25.34 -44 25 C-51.67144508 23.485899 -59.19898269 22.51734495 -67 22 C-67.33 20.35 -67.66 18.7 -68 17 C-53.19888505 17.47481453 -38.6674363 18.98142351 -24 21 C-24 21.66 -24 22.32 -24 23 C-23.34 23 -22.68 23 -22 23 C-22 22.01 -22 21.02 -22 20 C-20.70703125 18.6328125 -20.70703125 18.6328125 -18.8125 17.125 C-14.00885696 13.12484401 -9.67402053 8.73027984 -5.3059082 4.26806641 C-1.10084599 0 -1.10084599 0 0 0 Z " fill="#104818" transform="translate(166,97)"/>
<path d="M0 0 C15.03852979 -0.12067956 29.98859814 0.0607391 45 1 C45.495 4.96 45.495 4.96 46 9 C41.545 9.495 41.545 9.495 37 10 C38.58272601 11.58272601 40.38034003 11.34735747 42.5625 11.5625 C43.38878906 11.64628906 44.21507812 11.73007813 45.06640625 11.81640625 C45.70449219 11.87699219 46.34257812 11.93757812 47 12 C47 13.98 47 15.96 47 18 C41.72 18 36.44 18 31 18 C37.93 18.495 37.93 18.495 45 19 C45 19.99 45 20.98 45 22 C30.81 22 16.62 22 2 22 C2 20.35 2 18.7 2 17 C5.465 16.505 5.465 16.505 9 16 C6.36 15.34 3.72 14.68 1 14 C1 11.36 1 8.72 1 6 C5.95 5.67 10.9 5.34 16 5 C13.916875 4.87625 11.83375 4.7525 9.6875 4.625 C3.375 4.25 3.375 4.25 0 2 C0 1.34 0 0.68 0 0 Z " fill="#D9E0B2" transform="translate(101,130)"/>
<path d="M0 0 C6.25107435 0.42954941 12.04204521 1.01401507 18 3 C18.2511643 8.10700735 18.00724273 10.73742477 14.765625 14.80078125 C11.91634559 17.64612519 9.02037151 20.33756866 6 23 C5.20722656 23.70898438 4.41445312 24.41796875 3.59765625 25.1484375 C2.29453764 26.29867627 0.98227741 27.43874796 -0.34375 28.5625 C-2.04430976 29.92812587 -2.04430976 29.92812587 -3.203125 31.6640625 C-6.20659963 33.8970806 -9.65471565 33.43690556 -13.25 33.375 C-14.07105225 33.36847412 -14.89210449 33.36194824 -15.73803711 33.35522461 C-41.35524179 32.82237911 -41.35524179 32.82237911 -49 29 C-47.59316253 25.60014278 -46.16483547 23.8903332 -43 22 C-40.08203125 21.671875 -40.08203125 21.671875 -36.8125 21.75 C-35.66394531 21.77320312 -34.51539062 21.79640625 -33.33203125 21.8203125 C-30.51864217 21.97203102 -27.78849818 22.24070277 -25 22.625 C-21.4597373 23.07971264 -19.14591569 22.90661557 -16 21 C-15.34 20.01 -14.68 19.02 -14 18 C-10.27085616 15.28789539 -6.37171577 14.08142563 -1.98828125 12.84375 C0.35349411 12.06477744 0.35349411 12.06477744 2 9 C2.37916206 5.3031699 1.72586006 3.22571464 0 0 Z " fill="#F1F4F2" transform="translate(149,80)"/>
<path d="M0 0 C9.01196639 1.42060554 19.91998933 10.67644782 26.3984375 16.6484375 C28 19 28 19 28.1640625 21.7890625 C27.66675805 24.34765784 26.92440228 26.57221244 26 29 C16.54323368 29.16188473 7.17629717 28.65311243 -2.25 28 C-3.6887776 27.90328091 -5.12757963 27.80692457 -6.56640625 27.7109375 C-10.04456161 27.47812623 -13.52236366 27.24045444 -17 27 C-15.80032165 23.79035852 -14.50555395 21.02697597 -12.5390625 18.22265625 C-11.83136719 17.20461914 -11.83136719 17.20461914 -11.109375 16.16601562 C-10.37460938 15.12477539 -10.37460938 15.12477539 -9.625 14.0625 C-8.65849295 12.67863763 -7.69234143 11.29452687 -6.7265625 9.91015625 C-6.26540039 9.25160645 -5.80423828 8.59305664 -5.32910156 7.91455078 C-3.51464564 5.30085436 -1.75337101 2.65498596 0 0 Z " fill="#EEF2EF" transform="translate(265,161)"/>
<path d="M0 0 C0.20086443 3.71599191 0.1519437 4.77208445 -2 8 C-2.80824219 7.91621094 -3.61648437 7.83242188 -4.44921875 7.74609375 C-5.51785156 7.64425781 -6.58648437 7.54242188 -7.6875 7.4375 C-8.74324219 7.33308594 -9.79898438 7.22867187 -10.88671875 7.12109375 C-13.81426086 7.00722448 -16.17131144 7.29151585 -19 8 C-18.68036511 10.97115156 -18.68036511 10.97115156 -17 14 C-14.86134478 15.0670764 -12.75671997 15.65743162 -10.453125 16.2890625 C-5.3947715 17.75501845 -0.46794586 19.94392297 3 24 C4.24059051 27.72177153 4.81649683 31.14973054 4 35 C2.19836072 37.31718529 0.53072796 38.3803341 -2 40 C-2.66 40 -3.32 40 -4 40 C-4.33 40.99 -4.66 41.98 -5 43 C-13.01426231 43.48817841 -18.94912244 42.98837518 -26 39 C-26.125 36.125 -26.125 36.125 -26 33 C-25.34 32.34 -24.68 31.68 -24 31 C-20.70285207 31.32971479 -19.3773161 31.6226839 -17 34 C-13.15541573 34.21358801 -9.68379022 34.17881287 -6 33 C-5.67 31.02 -5.34 29.04 -5 27 C-5.6290625 26.90203125 -6.258125 26.8040625 -6.90625 26.703125 C-15.34385915 25.22908485 -22.53152713 22.95889276 -27.98828125 15.9921875 C-29.55565214 12.90585872 -29.45115468 10.50727718 -28.8203125 7.15234375 C-27.45122159 3.56010999 -25.12733667 1.17824445 -22 -1 C-14.79741601 -3.40086133 -7.11846939 -2.14897189 0 0 Z " fill="#AEC538" transform="translate(117,266)"/>
<path d="M0 0 C18.79881237 5.22189232 33.7286295 20.42206566 43.375 36.9375 C46.83380836 45.37522995 46.39042015 54.6639006 43.2265625 63.1328125 C42.375 64.9375 42.375 64.9375 40.375 67.9375 C39.385 67.9375 38.395 67.9375 37.375 67.9375 C37.36041748 67.35371582 37.34583496 66.76993164 37.33081055 66.16845703 C37.25530915 63.46588041 37.15899662 60.76440536 37.0625 58.0625 C37.02866211 56.68578125 37.02866211 56.68578125 36.99414062 55.28125 C36.67986597 47.16724975 35.88923938 38.36058279 29.6875 32.5 C20.76930442 24.28241553 10.11708251 17.50036416 -0.625 11.9375 C-0.625 11.2775 -0.625 10.6175 -0.625 9.9375 C-3.1 8.9475 -3.1 8.9475 -5.625 7.9375 C-5.84917836 5.1726335 -5.94733508 3.47472513 -4.5 1.0625 C-2.625 -0.0625 -2.625 -0.0625 0 0 Z " fill="#AFCA39" transform="translate(265.625,144.0625)"/>
<path d="M0 0 C10.49065845 -0.0939462 20.9579808 -0.11098611 31.4375 0.4375 C32.2106958 0.47673584 32.9838916 0.51597168 33.78051758 0.55639648 C37.91595455 0.79381386 41.92145227 1.23082856 46 2 C45.67 3.65 45.34 5.3 45 7 C43.35 7 41.7 7 40 7 C40 7.66 40 8.32 40 9 C42.31 9 44.62 9 47 9 C47.495 11.97 47.495 11.97 48 15 C46.35 15.33 44.7 15.66 43 16 C44.65 16.33 46.3 16.66 48 17 C48 17.99 48 18.98 48 20 C32.64862389 20.18275448 17.33755339 19.61625562 2 19 C2 17.68 2 16.36 2 15 C9.26 14.67 16.52 14.34 24 14 C20.7476041 13.34952082 18.0284193 12.85648042 14.79296875 12.68359375 C14.04208984 12.64169922 13.29121094 12.59980469 12.51757812 12.55664062 C11.74865234 12.51732422 10.97972656 12.47800781 10.1875 12.4375 C9.39923828 12.39431641 8.61097656 12.35113281 7.79882812 12.30664062 C5.86605785 12.20121679 3.93304974 12.10016906 2 12 C2 10.68 2 9.36 2 8 C8.6 7.67 15.2 7.34 22 7 C15.4 6.34 8.8 5.68 2 5 C1.34 3.35 0.68 1.7 0 0 Z " fill="#CED7A9" transform="translate(245,191)"/>
<path d="M0 0 C3.63 0 7.26 0 11 0 C11 14.85 11 29.7 11 45 C7.37 45 3.74 45 0 45 C0 30.15 0 15.3 0 0 Z " fill="#A8BF36" transform="translate(309,263)"/>
<path d="M0 0 C3.3 0 6.6 0 10 0 C10 14.85 10 29.7 10 45 C6.7 45 3.4 45 0 45 C0 30.15 0 15.3 0 0 Z " fill="#B1C939" transform="translate(136,263)"/>
<path d="M0 0 C14.80111495 0.47481453 29.3325637 1.98142351 44 4 C44 6.97 44 9.94 44 13 C30.14 13 16.28 13 2 13 C2 11.68 2 10.36 2 9 C9.26 8.67 16.52 8.34 24 8 C16.32855492 6.485899 8.80101731 5.51734495 1 5 C0.67 3.35 0.34 1.7 0 0 Z " fill="#C7D2A4" transform="translate(98,114)"/>
<path d="M0 0 C2.56336254 0.11446272 5.12513445 0.24119501 7.6875 0.375 C8.40873047 0.4059375 9.12996094 0.436875 9.87304688 0.46875 C13.97210394 0.69335587 17.24368459 1.17740909 21 3 C21 3.33 21 3.66 21 4 C13.08 4 5.16 4 -3 4 C-3 5.32 -3 6.64 -3 8 C10.86 8 24.72 8 39 8 C39 6.35 39 4.7 39 3 C39.33 3 39.66 3 40 3 C40 5.31 40 7.62 40 10 C36.10809917 10.14547716 32.2160933 10.28771642 28.32397461 10.42724609 C26.3663144 10.49805356 24.40874137 10.57125854 22.45117188 10.64453125 C14.29650461 10.9350283 6.1596708 11.06221501 -2 11 C-2 11.66 -2 12.32 -2 13 C2.31807659 14.43935886 6.63712488 14.38625262 11.1640625 14.62109375 C12.09992188 14.74613281 13.03578125 14.87117187 14 15 C14.33 15.66 14.66 16.32 15 17 C9.72 17 4.44 17 -1 17 C-1 19.64 -1 22.28 -1 25 C0.216875 25.144375 1.43375 25.28875 2.6875 25.4375 C5.82670377 25.82780953 8.9075134 26.32351856 12 27 C12 27.33 12 27.66 12 28 C8.04 28 4.08 28 0 28 C0 29.65 0 31.3 0 33 C14.19 33 28.38 33 43 33 C43.495 32.01 43.495 32.01 44 31 C44 31.99 44 32.98 44 34 C28.49 34.33 12.98 34.66 -3 35 C-5.25 21.5 -5.25 21.5 -5.625 14.75 C-5.69976562 13.46609375 -5.77453125 12.1821875 -5.8515625 10.859375 C-5.90054688 9.91578125 -5.94953125 8.9721875 -6 8 C-5.34 8 -4.68 8 -4 8 C-4 6.35 -4 4.7 -4 3 C-1.36 2.67 1.28 2.34 4 2 C2.68 1.34 1.36 0.68 0 0 Z " fill="#1C5023" transform="translate(103,119)"/>
<path d="M0 0 C9.04740406 1.13092551 9.04740406 1.13092551 11.9375 3.375 C12.78634766 4.00535156 12.78634766 4.00535156 13.65234375 4.6484375 C16.49348416 7.4978131 16.2540343 11.20353798 16.375 15 C16.42398438 16.051875 16.47296875 17.10375 16.5234375 18.1875 C16 21 16 21 13.59375 22.7734375 C12.30984375 23.38058594 12.30984375 23.38058594 11 24 C10.38125 24.53625 9.7625 25.0725 9.125 25.625 C7 27 7 27 0 28 C0 18.76 0 9.52 0 0 Z " fill="#090A02" transform="translate(171,272)"/>
<path d="M0 0 C9.04740406 1.13092551 9.04740406 1.13092551 11.9375 3.375 C12.78634766 4.00535156 12.78634766 4.00535156 13.65234375 4.6484375 C16.06298882 7.06606995 16.04021854 9.49066614 16.3125 12.8125 C16.23086501 18.37388391 13.52244923 21.47755077 9.6875 25.3125 C7 27 7 27 0 28 C0 18.76 0 9.52 0 0 Z " fill="#050601" transform="translate(220,272)"/>
<path d="M0 0 C0.33 1.65 0.66 3.3 1 5 C1.886875 4.525625 2.77375 4.05125 3.6875 3.5625 C8.64931535 1.22202106 12.85878992 0.87756912 18.3125 0.9375 C19.91544922 0.95103516 19.91544922 0.95103516 21.55078125 0.96484375 C22.35902344 0.97644531 23.16726562 0.98804688 24 1 C23.45492635 4.81551554 21.9542402 6.57965863 19 9 C10.22836426 12.69042132 -1.20152866 13.69961784 -10.4375 11.390625 C-13.10689534 10.3006219 -14.96067312 9.03932688 -17 7 C-17 5.0625 -17 5.0625 -16 3 C-10.92689117 -0.64223198 -5.97187198 -0.3186572 0 0 Z " fill="#EFA514" transform="translate(204,203)"/>
<path d="M0 0 C19.34042553 -0.19148936 19.34042553 -0.19148936 29 1 C28.33392561 5.40958108 26.73375271 9.26572186 24.9375 13.3125 C24.65583984 13.95767578 24.37417969 14.60285156 24.08398438 15.26757812 C23.3937257 16.84698358 22.69746802 18.42376493 22 20 C18.73493056 18.55780565 16.46952764 16.74905825 13.875 14.3125 C9.21432402 10.07058692 4.2340839 6.496674 -1 3 C-0.67 2.01 -0.34 1.02 0 0 Z " fill="#E9EEEA" transform="translate(279,142)"/>
<path d="M0 0 C7.34177215 -0.48945148 7.34177215 -0.48945148 10.4375 1.8125 C12 4 12 4 13 7 C13.33 5.35 13.66 3.7 14 2 C14.66 2.33 15.32 2.66 16 3 C15.51669316 9.40381558 15.51669316 9.40381558 13.375 11.875 C9.72911435 13.60199847 6.01127948 14 2 14 C1.0925 14.103125 0.185 14.20625 -0.75 14.3125 C-5.30185016 13.8748221 -6.75811663 12.16649073 -10 9 C-10.33 8.34 -10.66 7.68 -11 7 C-11.99 6.67 -12.98 6.34 -14 6 C-13.67 4.68 -13.34 3.36 -13 2 C-11.56208484 2.14168137 -10.1246763 2.28851043 -8.6875 2.4375 C-7.88699219 2.51871094 -7.08648437 2.59992188 -6.26171875 2.68359375 C-4 3 -4 3 -1 4 C-0.67 2.68 -0.34 1.36 0 0 Z " fill="#275B23" transform="translate(136,81)"/>
<path d="M0 0 C0.33 0 0.66 0 1 0 C1.47274258 5.85757604 0.40880752 8.69712704 -3 13.4375 C-4.11375 15.01337891 -4.11375 15.01337891 -5.25 16.62109375 C-5.8275 17.40613281 -6.405 18.19117188 -7 19 C-6.67 19.33 -6.34 19.66 -6 20 C-5.01 20 -4.02 20 -3 20 C-2.67 19.01 -2.34 18.02 -2 17 C-1.34 17 -0.68 17 0 17 C-1.48904175 20.89608498 -3.24378713 24.59097018 -5.125 28.3125 C-5.66382813 29.38113281 -6.20265625 30.44976562 -6.7578125 31.55078125 C-7.16773438 32.35902344 -7.57765625 33.16726562 -8 34 C-8.61875 33.814375 -9.2375 33.62875 -9.875 33.4375 C-12.04160178 32.76313824 -12.04160178 32.76313824 -14 34 C-14 32.35 -14 30.7 -14 29 C-14.60328125 29.02320313 -15.2065625 29.04640625 -15.828125 29.0703125 C-17.02695313 29.09738281 -17.02695313 29.09738281 -18.25 29.125 C-19.43335938 29.15980469 -19.43335938 29.15980469 -20.640625 29.1953125 C-23.20731941 28.9828378 -24.7916067 28.28654105 -27 27 C-24.11788698 26.03929566 -22.30149956 25.89418117 -19.3125 25.9375 C-18.10013672 25.95103516 -18.10013672 25.95103516 -16.86328125 25.96484375 C-16.24839844 25.97644531 -15.63351563 25.98804688 -15 26 C-15.12375 24.4221875 -15.12375 24.4221875 -15.25 22.8125 C-14.95017074 18.24010383 -13.9298458 17.40575984 -11 14 C-10.1454617 12.90638451 -9.29810293 11.80713087 -8.45703125 10.703125 C-7.80637695 9.85427734 -7.80637695 9.85427734 -7.14257812 8.98828125 C-6.24399113 7.81391646 -5.34555751 6.63943429 -4.44726562 5.46484375 C-1.10379464 1.10379464 -1.10379464 1.10379464 0 0 Z " fill="#084213" transform="translate(162,113)"/>
<path d="M0 0 C14.0479166 0.57898138 28.00823737 1.62129361 42 3 C42 3.33 42 3.66 42 4 C36.72 4 31.44 4 26 4 C32.93 4.495 32.93 4.495 40 5 C40 5.99 40 6.98 40 8 C25.81 8 11.62 8 -3 8 C-3 6.35 -3 4.7 -3 3 C0.465 2.505 0.465 2.505 4 2 C2.68 1.34 1.36 0.68 0 0 Z " fill="#65885A" transform="translate(106,144)"/>
<path d="M0 0 C5.9479799 -0.25191444 11.60505943 0.150171 17.5 1 C23.32420897 1.8328737 29.11400041 2.56243996 35 2 C35.33 1.67 35.66 1.34 36 1 C37.68608966 0.92794489 39.37500659 0.91613932 41.0625 0.9375 C41.98160156 0.94652344 42.90070313 0.95554688 43.84765625 0.96484375 C44.55792969 0.97644531 45.26820313 0.98804688 46 1 C46 3.31 46 5.62 46 8 C30.63754506 7.34111367 15.32566312 6.24218152 0 5 C0 3.35 0 1.7 0 0 Z " fill="#CAD4A6" transform="translate(247,212)"/>
<path d="M0 0 C-4.14618802 4.14618802 -10.25808285 5.16189776 -15.96484375 5.328125 C-17.62256755 5.31769086 -19.28026523 5.29159334 -20.9375 5.25 C-22.21077148 5.24226562 -22.21077148 5.24226562 -23.50976562 5.234375 C-29.68854592 5.15572704 -29.68854592 5.15572704 -32 4 C-31.5 2.1875 -31.5 2.1875 -30 0 C-19.88950943 -5.22564681 -9.79479371 -5.69878907 0 0 Z " fill="#EBE7E4" transform="translate(221,166)"/>
<path d="M0 0 C0.33 0.99 0.66 1.98 1 3 C0.01 3.495 0.01 3.495 -1 4 C-1.65772428 7.02934491 -1.65772428 7.02934491 -2 10 C-0.35 10 1.3 10 3 10 C3 8.35 3 6.7 3 5 C3.99 5.33 4.98 5.66 6 6 C6.10824843 7.6026782 6.18570645 9.20745748 6.25 10.8125 C6.29640625 11.70582031 6.3428125 12.59914062 6.390625 13.51953125 C6 16 6 16 4.16796875 17.81640625 C2 19 2 19 -0.9375 19.125 C-5.23995196 17.54450744 -7.08801854 15.10872611 -9 11 C-9.62715061 6.88867931 -9.69086262 4.99791268 -7.3125 1.5625 C-4.61589191 -0.25953249 -3.18873549 -0.35430394 0 0 Z " fill="#523006" transform="translate(220,128)"/>
<path d="M0 0 C0.33 1.98 0.66 3.96 1 6 C1.99 6 2.98 6 4 6 C4.66 4.68 5.32 3.36 6 2 C6.77917697 12.04272543 6.77917697 12.04272543 3.8125 15.6875 C0.81858853 17.08465869 -0.75679073 17.59743329 -4 17 C-6.3681919 15.2667581 -6.94081307 14.32750099 -7.46875 11.40625 C-7.49974213 8.52398179 -7.48066125 5.84464067 -7 3 C-4.54305747 0.73702662 -3.3203746 0 0 0 Z " fill="#4F2B06" transform="translate(191,130)"/>
<path d="M0 0 C0.33 0.99 0.66 1.98 1 3 C2.13091064 2.99214478 2.13091064 2.99214478 3.28466797 2.98413086 C17.89352901 2.89628644 32.42612612 2.92045379 47 4 C47 4.66 47 5.32 47 6 C46.28972656 6.06058594 45.57945312 6.12117187 44.84765625 6.18359375 C43.92855469 6.26738281 43.00945312 6.35117188 42.0625 6.4375 C41.14597656 6.51871094 40.22945313 6.59992188 39.28515625 6.68359375 C37.03840268 6.76044976 37.03840268 6.76044976 36 8 C28.26591522 8.63777727 20.52982443 7.48800641 12.875 6.5 C11.72773438 6.35691406 10.58046875 6.21382812 9.3984375 6.06640625 C6.59822529 5.71637972 3.79883952 5.3608104 1 5 C1 6.65 1 8.3 1 10 C0.67 10 0.34 10 0 10 C0 6.7 0 3.4 0 0 Z " fill="#215426" transform="translate(246,207)"/>
<path d="M0 0 C0.57231025 3.75887717 -0.00514161 5.00769847 -2.16015625 8.234375 C-3.11540989 9.41621127 -4.08355546 10.58771171 -5.0625 11.75 C-6.07329766 12.98666786 -7.08371401 14.22364748 -8.09375 15.4609375 C-8.83818359 16.36150879 -8.83818359 16.36150879 -9.59765625 17.28027344 C-12.04912342 20.2865643 -14.34577885 23.41119405 -16.66015625 26.5234375 C-17.32337891 27.25433594 -17.32337891 27.25433594 -18 28 C-18.66 28 -19.32 28 -20 28 C-20.72395952 23.24871602 -21.04697179 20.49703933 -18.23486328 16.47607422 C-15.76830809 13.84695642 -13.21365884 11.3802046 -10.5625 8.9375 C-9.21575195 7.6390918 -9.21575195 7.6390918 -7.84179688 6.31445312 C-1.23828433 0 -1.23828433 0 0 0 Z " fill="#97A959" transform="translate(166,97)"/>
<path d="M0 0 C8.39004715 -0.13605482 16.64380043 0.24524649 25 1 C23.125 4.875 23.125 4.875 22 6 C20.14630389 6.08737645 18.28932459 6.10698153 16.43359375 6.09765625 C15.30888672 6.09443359 14.18417969 6.09121094 13.02539062 6.08789062 C11.84138672 6.07951172 10.65738281 6.07113281 9.4375 6.0625 C8.24962891 6.05798828 7.06175781 6.05347656 5.83789062 6.04882812 C2.89187774 6.03699675 -0.05403681 6.02051287 -3 6 C-2 4 -1 2 0 0 Z " fill="#1A5027" transform="translate(262,178)"/>
<path d="M0 0 C-1 3 -1 3 -4.0625 4.66796875 C-8.00654356 6.20835923 -11.80201243 6.41302652 -16 6.3125 C-16.67289063 6.31572266 -17.34578125 6.31894531 -18.0390625 6.32226562 C-22.72984661 6.27246 -26.58968485 5.44139206 -31 4 C-30.67 3.01 -30.34 2.02 -30 1 C-26.87522287 0.82897872 -23.75015208 0.66401507 -20.625 0.5 C-19.75488281 0.45230469 -18.88476562 0.40460938 -17.98828125 0.35546875 C-11.98637239 0.04425866 -6.00955557 -0.05823526 0 0 Z " fill="#7F9A16" transform="translate(225,223)"/>
<path d="M0 0 C3.0625 2.3125 3.0625 2.3125 4 5.0625 C4.020625 5.805 4.04125 6.5475 4.0625 7.3125 C1.10585481 8.7908226 -1.67979737 8.37282783 -4.9375 8.3125 C-4.9375 7.6525 -4.9375 6.9925 -4.9375 6.3125 C-8.91727076 5.4683062 -12.90757218 4.86562735 -16.9375 4.3125 C-16.60762361 1.83842708 -16.35777913 0.6487233 -14.375 -0.9375 C-9.2318877 -2.51999609 -4.76705553 -2.42276279 0 0 Z " fill="#A8C537" transform="translate(124.9375,91.6875)"/>
<path d="M0 0 C2.08218362 -0.10832169 4.16599129 -0.18573541 6.25 -0.25 C7.99023438 -0.31960937 7.99023438 -0.31960937 9.765625 -0.390625 C13 0 13 0 15.4296875 1.890625 C17 4 17 4 16.875 6 C15.98198595 8.04117496 15.05222641 10.03584404 14 12 C10.71090998 11.40724092 8.91094429 10.34943983 6.4375 8.125 C5.85871094 7.61195313 5.27992188 7.09890625 4.68359375 6.5703125 C3.85021484 5.79300781 3.85021484 5.79300781 3 5 C2.15115234 4.22269531 2.15115234 4.22269531 1.28515625 3.4296875 C0 2 0 2 0 0 Z " fill="#A9C537" transform="translate(133,157)"/>
<path d="M0 0 C0.33 0 0.66 0 1 0 C1.66229184 6.46363297 -0.18073363 9.66168118 -3.9375 14.8125 C-4.86375812 16.13117559 -5.78956093 17.45017114 -6.71484375 18.76953125 C-7.84599609 20.36861328 -7.84599609 20.36861328 -9 22 C-9.33 22.66 -9.66 23.32 -10 24 C-10.66 24 -11.32 24 -12 24 C-13.01736509 20.82821473 -13.46696747 19.23831787 -13 16 C-10.40831861 11.9547234 -7.23847568 8.53432338 -4 5 C-3.26136719 4.06542969 -2.52273437 3.13085938 -1.76171875 2.16796875 C-1.18035156 1.45253906 -0.59898437 0.73710938 0 0 Z " fill="#8DA254" transform="translate(162,113)"/>
<path d="M0 0 C2.56336254 0.11446272 5.12513445 0.24119501 7.6875 0.375 C8.40873047 0.4059375 9.12996094 0.436875 9.87304688 0.46875 C13.97210394 0.69335587 17.24368459 1.17740909 21 3 C21 3.33 21 3.66 21 4 C13.08 4 5.16 4 -3 4 C-3 5.32 -3 6.64 -3 8 C10.86 8 24.72 8 39 8 C39 6.35 39 4.7 39 3 C39.33 3 39.66 3 40 3 C40 4.98 40 6.96 40 9 C25.48 9 10.96 9 -4 9 C-4 7.02 -4 5.04 -4 3 C-1.36 2.67 1.28 2.34 4 2 C2.68 1.34 1.36 0.68 0 0 Z " fill="#65885A" transform="translate(103,119)"/>
<path d="M0 0 C2.97 0.33 5.94 0.66 9 1 C9 1.66 9 2.32 9 3 C10.2065625 3.3403125 10.2065625 3.3403125 11.4375 3.6875 C14 5 14 5 14.875 7.5625 C14.936875 8.7690625 14.936875 8.7690625 15 10 C14 11 14 11 11.25 11.3125 C7.28712279 10.93145411 5.8176055 9.73710248 3 7 C2.67 6.34 2.34 5.68 2 5 C1.01 4.67 0.02 4.34 -1 4 C-0.67 2.68 -0.34 1.36 0 0 Z " fill="#A9C637" transform="translate(123,83)"/>
<path d="M0 0 C9.29132679 -0.15770286 18.48568834 0.3350759 27.75 1 C29.14059879 1.09673166 30.53122375 1.19308798 31.921875 1.2890625 C35.28152464 1.5223715 38.64086441 1.75942191 42 2 C42 2.66 42 3.32 42 4 C27.97396876 4.15938672 14.0092496 3.67067454 0 3 C0 2.01 0 1.02 0 0 Z " fill="#D0D8AA" transform="translate(104,148)"/>
<path d="M0 0 C3.3 0 6.6 0 10 0 C10 1.32 10 2.64 10 4 C7.69 4.33 5.38 4.66 3 5 C2.67 5.99 2.34 6.98 2 8 C-1.06985587 7.57164802 -3.71368507 7.12569924 -6.5625 5.875 C-9.49810545 4.82119292 -11.02715733 5.21767298 -14 6 C-14.99 6 -15.98 6 -17 6 C-15.91796875 4.51171875 -15.91796875 4.51171875 -14 3 C-10.86328125 2.70703125 -10.86328125 2.70703125 -7.3125 2.8125 C-5.54326172 2.85310547 -5.54326172 2.85310547 -3.73828125 2.89453125 C-2.83464844 2.92933594 -1.93101562 2.96414062 -1 3 C-0.67 2.01 -0.34 1.02 0 0 Z " fill="#063A0D" transform="translate(133,77)"/>
<path d="M0 0 C2.99053705 3.29752412 3.36034353 5.45755587 3.29296875 9.859375 C3.28330078 10.97441406 3.27363281 12.08945313 3.26367188 13.23828125 C3.23853516 14.39714844 3.21339844 15.55601562 3.1875 16.75 C3.17396484 17.92433594 3.16042969 19.09867188 3.14648438 20.30859375 C3.1111478 23.20619298 3.06180979 26.10286427 3 29 C2.01 29.33 1.02 29.66 0 30 C-0.16728213 25.88850113 -0.32787468 21.77680194 -0.48217773 17.66479492 C-0.53566026 16.26498319 -0.59099434 14.86524096 -0.64819336 13.46557617 C-0.72992949 11.4577104 -0.80453025 9.44955813 -0.87890625 7.44140625 C-0.9260376 6.23170166 -0.97316895 5.02199707 -1.02172852 3.77563477 C-1 1 -1 1 0 0 Z " fill="#80984D" transform="translate(296,187)"/>
<path d="M0 0 C15.03852979 -0.12067956 29.98859814 0.0607391 45 1 C45.495 4.96 45.495 4.96 46 9 C43.69 9 41.38 9 39 9 C39 8.67 39 8.34 39 8 C40.98 8 42.96 8 45 8 C44.505 5.03 44.505 5.03 44 2 C42.10725342 2.05329468 42.10725342 2.05329468 40.17626953 2.10766602 C35.50615575 2.23778439 30.8358818 2.36103258 26.16552734 2.48217773 C24.14203921 2.53563266 22.11859977 2.59096466 20.09521484 2.64819336 C17.19118757 2.73000696 14.28705356 2.80512562 11.3828125 2.87890625 C10.02024826 2.91945885 10.02024826 2.91945885 8.63015747 2.96083069 C7.78943695 2.98092697 6.94871643 3.00102325 6.08251953 3.02172852 C4.96999313 3.05170677 4.96999313 3.05170677 3.83499146 3.08229065 C2 3 2 3 0 2 C0 1.34 0 0.68 0 0 Z " fill="#9CB183" transform="translate(101,130)"/>
<path d="M0 0 C0.33 0 0.66 0 1 0 C1.25 7.625 1.25 7.625 -1 11 C-1.66 11 -2.32 11 -3 11 C-3.66 13.31 -4.32 15.62 -5 18 C-5.99 18 -6.98 18 -8 18 C-8 16.35 -8 14.7 -8 13 C-8.99 13 -9.98 13 -11 13 C-9.68 10.03 -8.36 7.06 -7 4 C-6 8 -6 8 -7 10 C-3.72713318 7.2180632 -2.03572303 3.72045933 0 0 Z " fill="#7B954B" transform="translate(311,149)"/>
<path d="M0 0 C2.54032055 0.01796549 5.04320014 0.118343 7.57421875 0.33203125 C7.57421875 2.64203125 7.57421875 4.95203125 7.57421875 7.33203125 C2.65294841 7.49885397 -0.92922021 7.58031177 -5.42578125 5.33203125 C-4.29102155 2.08986068 -3.53506819 0.48386602 0 0 Z " fill="#D1DAAC" transform="translate(285.42578125,212.66796875)"/>
<path d="M0 0 C14.52 0.99 29.04 1.98 44 3 C44.33 2.01 44.66 1.02 45 0 C45 1.32 45 2.64 45 4 C29.49 4 13.98 4 -2 4 C-1.34 2.68 -0.68 1.36 0 0 Z " fill="#507958" transform="translate(247,187)"/>
<path d="M0 0 C0.93005859 0.18175781 0.93005859 0.18175781 1.87890625 0.3671875 C9.88710589 1.88256735 17.91693032 2.97461734 26 4 C26 4.33 26 4.66 26 5 C21.71 5 17.42 5 13 5 C13 5.66 13 6.32 13 7 C11.39479996 6.93976735 9.79065673 6.85091401 8.1875 6.75 C6.84751953 6.68039063 6.84751953 6.68039063 5.48046875 6.609375 C3 6 3 6 1.17578125 4.078125 C0 2 0 2 0 0 Z " fill="#386742" transform="translate(99,108)"/>
<path d="M0 0 C0.25 2.25 0.25 2.25 0 5 C-1.875 7.3125 -1.875 7.3125 -4 9 C-4.66 9 -5.32 9 -6 9 C-7.49889633 10.22044701 -7.49889633 10.22044701 -9.0390625 11.84375 C-9.61914062 12.43027344 -10.19921875 13.01679687 -10.796875 13.62109375 C-11.40015625 14.24113281 -12.0034375 14.86117187 -12.625 15.5 C-13.23601562 16.12003906 -13.84703125 16.74007812 -14.4765625 17.37890625 C-15.98887719 18.91485086 -17.49502114 20.45686675 -19 22 C-19.33 21.01 -19.66 20.02 -20 19 C-16.85817898 15.8293305 -13.71089125 12.66414446 -10.5625 9.5 C-9.66466797 8.59378906 -8.76683594 7.68757813 -7.84179688 6.75390625 C-6.98779297 5.89667969 -6.13378906 5.03945312 -5.25390625 4.15625 C-4.46314697 3.36025391 -3.6723877 2.56425781 -2.85766602 1.74414062 C-1 0 -1 0 0 0 Z " fill="#8A9F53" transform="translate(166,97)"/>
<path d="M0 0 C7.42309859 -0.48676056 7.42309859 -0.48676056 10 1.6875 C11.13489245 4.3119388 11.23590819 6.16910178 11 9 C8.875 9.375 8.875 9.375 6 9 C3.66752912 7.27932476 1.67653141 5.36788457 0 3 C0 2.01 0 1.02 0 0 Z " fill="#A0BF35" transform="translate(136,81)"/>
<path d="M0 0 C0 0.66 0 1.32 0 2 C-2.55723229 3.27861615 -4.36737102 3.11336609 -7.2265625 3.09765625 C-8.2578125 3.09443359 -9.2890625 3.09121094 -10.3515625 3.08789062 C-11.97191406 3.07532227 -11.97191406 3.07532227 -13.625 3.0625 C-15.25695312 3.05573242 -15.25695312 3.05573242 -16.921875 3.04882812 C-19.61463789 3.03701776 -22.30729188 3.02054778 -25 3 C-25 4.65 -25 6.3 -25 8 C-24.01 8.33 -23.02 8.66 -22 9 C-23.32 9 -24.64 9 -26 9 C-26 6.36 -26 3.72 -26 1 C-17.32685006 0.39739901 -8.70044116 -0.1882307 0 0 Z " fill="#B4C496" transform="translate(128,135)"/>
<path d="M0 0 C1.32 0.66 2.64 1.32 4 2 C4 2.66 4 3.32 4 4 C3.34 4 2.68 4 2 4 C1.67 4.99 1.34 5.98 1 7 C-0.70703125 7.94921875 -0.70703125 7.94921875 -2.8125 8.6875 C-3.49957031 8.93886719 -4.18664062 9.19023437 -4.89453125 9.44921875 C-7 10 -7 10 -11 10 C-11 9.34 -11 8.68 -11 8 C-12.65 8 -14.3 8 -16 8 C-13.37465207 6.46854704 -10.94452387 5.74027365 -8 5.125 C-4.32318266 4.274393 -2.40372282 3.00465353 0 0 Z " fill="#5D3404" transform="translate(227,207)"/>
<path d="M0 0 C1.0209375 0.2165625 1.0209375 0.2165625 2.0625 0.4375 C1.68948541 3.13019909 1.3023855 4.22139625 -0.75 6.0703125 C-1.8328125 6.80894531 -1.8328125 6.80894531 -2.9375 7.5625 C-5.96033894 9.53823376 -5.96033894 9.53823376 -7.9375 12.4375 C-8.9275 12.4375 -9.9175 12.4375 -10.9375 12.4375 C-10.7885603 7.52248978 -8.17400892 5.04101469 -4.79296875 1.8203125 C-2.9375 0.4375 -2.9375 0.4375 0 0 Z " fill="#839E18" transform="translate(190.9375,106.5625)"/>
<path d="M0 0 C1.65 0 3.3 0 5 0 C4.01 0.33 3.02 0.66 2 1 C2 9.25 2 17.5 2 26 C3.65 26 5.3 26 7 26 C4 28 4 28 0 28 C0 18.76 0 9.52 0 0 Z " fill="#323910" transform="translate(220,272)"/>
<path d="M0 0 C1.65 0 3.3 0 5 0 C4.01 0.66 3.02 1.32 2 2 C1.58321393 4.51896074 1.58321393 4.51896074 1.70703125 7.4453125 C1.71669922 8.52167969 1.72636719 9.59804688 1.73632812 10.70703125 C1.76146484 11.83496094 1.78660156 12.96289062 1.8125 14.125 C1.82603516 15.26066406 1.83957031 16.39632813 1.85351562 17.56640625 C1.88895681 20.37807387 1.93836483 23.18880417 2 26 C3.65 26 5.3 26 7 26 C4 28 4 28 0 28 C0 18.76 0 9.52 0 0 Z " fill="#30360F" transform="translate(171,272)"/>
<path d="M0 0 C0.33 0 0.66 0 1 0 C0.98259766 0.95712891 0.98259766 0.95712891 0.96484375 1.93359375 C0.95582031 2.75988281 0.94679688 3.58617187 0.9375 4.4375 C0.92589844 5.26121094 0.91429687 6.08492187 0.90234375 6.93359375 C0.76732652 8.99163938 0.76732652 8.99163938 2 10 C2.04092937 12.33297433 2.04241723 14.66705225 2 17 C1.01 17 0.02 17 -1 17 C-2.91638698 13.78046988 -4.02970315 11.72772706 -3.875 7.9375 C-2.96795283 4.89241309 -1.82925872 2.59144985 0 0 Z " fill="#7A944A" transform="translate(311,161)"/>
<path d="M0 0 C3.07847595 -0.39299693 5.09180467 -0.64840923 7.6796875 1.19921875 C9.46072197 3.62838115 9.30351243 5.20984767 9.1875 8.1875 C9.16042969 9.08855469 9.13335937 9.98960937 9.10546875 10.91796875 C9.07066406 11.60503906 9.03585938 12.29210937 9 13 C8.67 13 8.34 13 8 13 C7.67 11.35 7.34 9.7 7 8 C6.360625 8.185625 5.72125 8.37125 5.0625 8.5625 C4.381875 8.706875 3.70125 8.85125 3 9 C2 8 2 8 1.9375 4.9375 C1.958125 3.968125 1.97875 2.99875 2 2 C0.68 2.33 -0.64 2.66 -2 3 C-1.34 2.01 -0.68 1.02 0 0 Z " fill="#685018" transform="translate(189,128)"/>
<path d="M0 0 C0.99 0.495 0.99 0.495 2 1 C2 1.66 2 2.32 2 3 C9.59 3.33 17.18 3.66 25 4 C21.79593538 6.13604308 21.00399253 6.24208908 17.33203125 6.1953125 C16.43935547 6.18886719 15.54667969 6.18242187 14.62695312 6.17578125 C13.23379883 6.15064453 13.23379883 6.15064453 11.8125 6.125 C10.87212891 6.11597656 9.93175781 6.10695312 8.96289062 6.09765625 C6.64167032 6.07409056 4.32096356 6.04119116 2 6 C1.34 4.02 0.68 2.04 0 0 Z " fill="#567C4E" transform="translate(245,193)"/>
<path d="M0 0 C0 0.66 0 1.32 0 2 C-1.55780332 2.67756882 -3.12150096 3.34159457 -4.6875 4 C-5.99267578 4.556875 -5.99267578 4.556875 -7.32421875 5.125 C-10.0572002 6.01870488 -12.14700934 6.16449676 -15 6 C-14.67 4.68 -14.34 3.36 -14 2 C-9.126739 0.4087311 -5.19209404 -0.21192221 0 0 Z " fill="#7E9916" transform="translate(225,112)"/>
<path d="M0 0 C0.33 0.66 0.66 1.32 1 2 C2.09957031 1.98839844 3.19914063 1.97679687 4.33203125 1.96484375 C12.61536634 1.90482638 20.76128653 2.00352494 29 3 C29 3.33 29 3.66 29 4 C24.14270355 4.97299156 19.5499375 5.12038805 14.625 5.0625 C13.88894531 5.05798828 13.15289062 5.05347656 12.39453125 5.04882812 C10.59631842 5.03715142 8.79814803 5.01922011 7 5 C7 4.67 7 4.34 7 4 C4.69 3.67 2.38 3.34 0 3 C0 2.01 0 1.02 0 0 Z " fill="#497345" transform="translate(246,201)"/>
<path d="M0 0 C4.62 0 9.24 0 14 0 C14 0.99 14 1.98 14 3 C11.47524538 4.26237731 9.68799534 4.09856404 6.875 4.0625 C5.96492187 4.05347656 5.05484375 4.04445312 4.1171875 4.03515625 C3.41851562 4.02355469 2.71984375 4.01195312 2 4 C1.34 2.68 0.68 1.36 0 0 Z " fill="#8AA41C" transform="translate(198,148)"/>
<path d="M0 0 C2.22889496 -0.05428973 4.45817471 -0.09292338 6.6875 -0.125 C8.54955078 -0.15980469 8.54955078 -0.15980469 10.44921875 -0.1953125 C13.81237857 -0.01032021 15.9985587 0.54232105 19 2 C19 2.33 19 2.66 19 3 C12.73 3 6.46 3 0 3 C0 2.01 0 1.02 0 0 Z " fill="#D9E0B2" transform="translate(100,123)"/>
<path d="M0 0 C1.32 0.66 2.64 1.32 4 2 C3.34 3.98 2.68 5.96 2 8 C0.35 8 -1.3 8 -3 8 C-3.1875 5.125 -3.1875 5.125 -3 2 C-2.01 1.34 -1.02 0.68 0 0 Z " fill="#715730" transform="translate(221,130)"/>
<path d="M0 0 C1 4 1 4 0 6 C0.99 5.67 1.98 5.34 3 5 C2.67 7.97 2.34 10.94 2 14 C1.01 14 0.02 14 -1 14 C-1 12.35 -1 10.7 -1 9 C-1.99 9 -2.98 9 -4 9 C-2.68 6.03 -1.36 3.06 0 0 Z " fill="#537949" transform="translate(304,153)"/>
<path d="M0 0 C0.66 0.33 1.32 0.66 2 1 C1.67 1.78375 1.34 2.5675 1 3.375 C-0.11866511 5.84332497 -0.11866511 5.84332497 0 8 C0.66 8.33 1.32 8.66 2 9 C0.68 9 -0.64 9 -2 9 C-2.33 8.34 -2.66 7.68 -3 7 C-3.45375 7.495 -3.9075 7.99 -4.375 8.5 C-6 10 -6 10 -8 10 C-6.34908222 5.70761377 -3.26245434 3.1206085 0 0 Z " fill="#604316" transform="translate(189,162)"/>
<path d="M0 0 C0.33 0.66 0.66 1.32 1 2 C0.00390625 4.6015625 0.00390625 4.6015625 -1.4375 7.625 C-1.91058594 8.62789062 -2.38367188 9.63078125 -2.87109375 10.6640625 C-3.24363281 11.43492187 -3.61617187 12.20578125 -4 13 C-4.99 13 -5.98 13 -7 13 C-6.65986985 7.55791766 -3.29703472 4.06331802 0 0 Z " fill="#64843F" transform="translate(158,134)"/>
<path d="M0 0 C0.66 0 1.32 0 2 0 C1.1875 2.4375 1.1875 2.4375 0 5 C-0.99 5.33 -1.98 5.66 -3 6 C-3.66 6.66 -4.32 7.32 -5 8 C-7 8 -9 8 -11 8 C-10.67 6.68 -10.34 5.36 -10 4 C-10 4.99 -10 5.98 -10 7 C-9.34 7 -8.68 7 -8 7 C-7.67 6.01 -7.34 5.02 -7 4 C-5.02 3.67 -3.04 3.34 -1 3 C-0.67 2.01 -0.34 1.02 0 0 Z " fill="#24561F" transform="translate(160,130)"/>
<path d="M0 0 C2.33333333 0 4.66666667 0 7 0 C7 1.65 7 3.3 7 5 C6.34 4.01 5.68 3.02 5 2 C4.071875 2.99 4.071875 2.99 3.125 4 C0.38144262 6.58217165 -0.2877081 6 -4 6 C-2.1875 3 -2.1875 3 0 0 Z " fill="#255620" transform="translate(157,112)"/>
<path d="M0 0 C3.3 0.33 6.6 0.66 10 1 C9.67 1.66 9.34 2.32 9 3 C3.39 3 -2.22 3 -8 3 C-8 2.67 -8 2.34 -8 2 C-5.36 1.67 -2.72 1.34 0 1 C0 0.67 0 0.34 0 0 Z " fill="#A1B587" transform="translate(122,121)"/>
<path d="M0 0 C0.99 0.33 1.98 0.66 3 1 C1.68 4.3 0.36 7.6 -1 11 C-1.33 10.34 -1.66 9.68 -2 9 C-2.66 8.67 -3.32 8.34 -4 8 C-2.68 5.36 -1.36 2.72 0 0 Z " fill="#255720" transform="translate(308,160)"/>
<path d="M0 0 C0.66 0.33 1.32 0.66 2 1 C0.90344712 2.31886772 -0.20253423 3.62990057 -1.3125 4.9375 C-1.92738281 5.66839844 -2.54226562 6.39929688 -3.17578125 7.15234375 C-5 9 -5 9 -8 10 C-6.34908222 5.70761377 -3.26245434 3.1206085 0 0 Z " fill="#96B632" transform="translate(189,64)"/>
<path d="M0 0 C1.8871875 0.0309375 1.8871875 0.0309375 3.8125 0.0625 C4.1425 1.0525 4.4725 2.0425 4.8125 3.0625 C-3.75892857 3.34821429 -3.75892857 3.34821429 -7.1875 1.0625 C-4.43671116 0.14557039 -2.82801087 -0.04636083 0 0 Z " fill="#326133" transform="translate(142.1875,138.9375)"/>
<path d="M0 0 C0.66 0 1.32 0 2 0 C2.36923077 6.4 2.36923077 6.4 0.5 9.4375 C0.005 9.953125 -0.49 10.46875 -1 11 C-1.33 8.36 -1.66 5.72 -2 3 C-1.34 3 -0.68 3 0 3 C0 2.01 0 1.02 0 0 Z " fill="#1E521F" transform="translate(144,117)"/>
<path d="M0 0 C-1 1 -1 1 -3.5625 1.0625 C-4.7690625 1.0315625 -4.7690625 1.0315625 -6 1 C-6.2475 1.598125 -6.495 2.19625 -6.75 2.8125 C-8.16370012 5.28647521 -9.65055383 6.43370255 -12 8 C-10.82884146 4.66670261 -9.88352404 2.13594373 -7 0 C-2.58461538 -1.29230769 -2.58461538 -1.29230769 0 0 Z " fill="#001605" transform="translate(308,215)"/>
<path d="M0 0 C0.33 0 0.66 0 1 0 C1.33 2.97 1.66 5.94 2 9 C1.67 8.34 1.34 7.68 1 7 C-1.31 7 -3.62 7 -6 7 C-6 6.34 -6 5.68 -6 5 C-4.35 4.67 -2.7 4.34 -1 4 C-0.67 2.68 -0.34 1.36 0 0 Z " fill="#467043" transform="translate(291,193)"/>
<path d="M0 0 C0 2.31 0 4.62 0 7 C-0.99 7 -1.98 7 -3 7 C-3.33 5.02 -3.66 3.04 -4 1 C-2 0 -2 0 0 0 Z " fill="#899F52" transform="translate(313,171)"/>
<path d="M0 0 C4.37934119 0.51958285 8.68803391 1.05675742 13 2 C13 2.33 13 2.66 13 3 C9.04 3 5.08 3 1 3 C0.67 2.01 0.34 1.02 0 0 Z " fill="#154C1D" transform="translate(102,144)"/>
<path d="M0 0 C1.66611905 -0.042721 3.33382885 -0.04063832 5 0 C5.33 0.33 5.66 0.66 6 1 C5.91062197 2.52519276 5.75462854 4.04681929 5.5625 5.5625 C5.46066406 6.38878906 5.35882813 7.21507813 5.25390625 8.06640625 C5.12822266 9.02353516 5.12822266 9.02353516 5 10 C4.67 10 4.34 10 4 10 C4 7.36 4 4.72 4 2 C2.68 1.67 1.36 1.34 0 1 C0 0.67 0 0.34 0 0 Z " fill="#98B09D" transform="translate(161,82)"/>
<path d="M0 0 C2.64 0 5.28 0 8 0 C8.33 0.99 8.66 1.98 9 3 C6.36 3 3.72 3 1 3 C0.67 2.01 0.34 1.02 0 0 Z " fill="#92AA7C" transform="translate(130,139)"/>
<path d="M0 0 C0.99 0.33 1.98 0.66 3 1 C3 2.65 3 4.3 3 6 C1.68 5.67 0.36 5.34 -1 5 C-0.67 3.35 -0.34 1.7 0 0 Z " fill="#D3CAC3" transform="translate(192,131)"/>
<path d="M0 0 C2.5625 0.25 2.5625 0.25 5 1 C5.33 1.66 5.66 2.32 6 3 C3.69 3 1.38 3 -1 3 C-1 4.65 -1 6.3 -1 8 C-1.33 8 -1.66 8 -2 8 C-2.125 5.125 -2.125 5.125 -2 2 C-1.34 1.34 -0.68 0.68 0 0 Z " fill="#697721" transform="translate(93,297)"/>
<path d="M0 0 C2.375 0.3125 2.375 0.3125 5 1 C5.66 1.99 6.32 2.98 7 4 C6.01 4.33 5.02 4.66 4 5 C1.8125 3.6875 1.8125 3.6875 0 2 C0 1.34 0 0.68 0 0 Z " fill="#215715" transform="translate(123,89)"/>
<path d="M0 0 C1.32 0.33 2.64 0.66 4 1 C4 2.32 4 3.64 4 5 C2.68 4.67 1.36 4.34 0 4 C0 2.68 0 1.36 0 0 Z " fill="#DED7D2" transform="translate(218,132)"/>
<path d="M0 0 C-1.39332574 3.36720387 -2.9789286 4.9859524 -6 7 C-5.37162381 3.35541809 -4.14650034 0 0 0 Z " fill="#A0B533" transform="translate(97,265)"/>
<path d="M0 0 C3.63 0.33 7.26 0.66 11 1 C11 1.33 11 1.66 11 2 C7.7 2.33 4.4 2.66 1 3 C0.67 2.01 0.34 1.02 0 0 Z " fill="#A4B9A9" transform="translate(149,80)"/>
</svg>
